<?xml version="1.0" encoding="UTF-8" standalone="no"?>
<!-- Created with Inkscape (http://www.inkscape.org/) -->

<svg
   xmlns:dc="http://purl.org/dc/elements/1.1/"
   xmlns:cc="http://creativecommons.org/ns#"
   xmlns:rdf="http://www.w3.org/1999/02/22-rdf-syntax-ns#"
   xmlns:svg="http://www.w3.org/2000/svg"
   xmlns="http://www.w3.org/2000/svg"
   xmlns:sodipodi="http://sodipodi.sourceforge.net/DTD/sodipodi-0.dtd"
   xmlns:inkscape="http://www.inkscape.org/namespaces/inkscape"
   width="48pt"
   height="48pt"
   viewBox="0 0 16.933334 16.933333"
   version="1.1"
   id="svg979"
   inkscape:version="0.92.4 (5da689c313, 2019-01-14)"
   sodipodi:docname="8 - Nail Polish.svg"
   inkscape:export-filename="E:\TR Design Studio Creative\Project Design\TR Creative Design\Icon Design\Project Hiring\Icon Icons\Project - 001\002 - Beauty And Fashion\Send\Line\8 - Nail Polish.png"
   inkscape:export-xdpi="768"
   inkscape:export-ydpi="768">
  <defs
     id="defs973" />
  <sodipodi:namedview
     id="base"
     pagecolor="#ffffff"
     bordercolor="#666666"
     borderopacity="1.0"
     inkscape:pageopacity="0.0"
     inkscape:pageshadow="2"
     inkscape:zoom="8.546875"
     inkscape:cx="32"
     inkscape:cy="32"
     inkscape:document-units="pt"
     inkscape:current-layer="layer1"
     showgrid="false"
     units="pt"
     inkscape:window-width="1366"
     inkscape:window-height="716"
     inkscape:window-x="-8"
     inkscape:window-y="-8"
     inkscape:window-maximized="1"
     inkscape:snap-bbox="true"
     inkscape:bbox-nodes="true"
     inkscape:snap-nodes="false"
     showguides="false">
    <inkscape:grid
       type="xygrid"
       id="grid1526" />
    <sodipodi:guide
       position="0.97013909,15.963209"
       orientation="56.666615,0"
       id="guide1528"
       inkscape:locked="false" />
    <sodipodi:guide
       position="0.97013909,0.97016731"
       orientation="0,56.666667"
       id="guide1530"
       inkscape:locked="false" />
    <sodipodi:guide
       position="15.963195,0.97016731"
       orientation="-56.666615,0"
       id="guide1532"
       inkscape:locked="false" />
    <sodipodi:guide
       position="15.963195,15.963209"
       orientation="0,-56.666667"
       id="guide1534"
       inkscape:locked="false" />
  </sodipodi:namedview>
  <metadata
     id="metadata976">
    <rdf:RDF>
      <cc:Work
         rdf:about="">
        <dc:format>image/svg+xml</dc:format>
        <dc:type
           rdf:resource="http://purl.org/dc/dcmitype/StillImage" />
        <dc:title></dc:title>
      </cc:Work>
    </rdf:RDF>
  </metadata>
  <g
     inkscape:label="Layer 1"
     inkscape:groupmode="layer"
     id="layer1"
     transform="translate(0,-280.06668)">
    <path
       style="color:#000000;font-style:normal;font-variant:normal;font-weight:normal;font-stretch:normal;font-size:medium;line-height:normal;font-family:sans-serif;font-variant-ligatures:normal;font-variant-position:normal;font-variant-caps:normal;font-variant-numeric:normal;font-variant-alternates:normal;font-feature-settings:normal;text-indent:0;text-align:start;text-decoration:none;text-decoration-line:none;text-decoration-style:solid;text-decoration-color:#000000;letter-spacing:normal;word-spacing:normal;text-transform:none;writing-mode:lr-tb;direction:ltr;text-orientation:mixed;dominant-baseline:auto;baseline-shift:baseline;text-anchor:start;white-space:normal;shape-padding:0;clip-rule:nonzero;display:inline;overflow:visible;visibility:visible;opacity:1;isolation:auto;mix-blend-mode:normal;color-interpolation:sRGB;color-interpolation-filters:linearRGB;solid-color:#000000;solid-opacity:1;vector-effect:none;fill:#000000;fill-opacity:1;fill-rule:nonzero;stroke:none;stroke-width:0.52916598;stroke-linecap:round;stroke-linejoin:round;stroke-miterlimit:4;stroke-dasharray:none;stroke-dashoffset:0;stroke-opacity:1;paint-order:markers fill stroke;color-rendering:auto;image-rendering:auto;shape-rendering:auto;text-rendering:auto;enable-background:accumulate"
       d="m 10.446835,281.58273 c -0.5131227,0 -0.9379792,0.42296 -0.9379792,0.93608 v 4.10279 c 0,0.18948 0.1029081,0.37176 0.3400934,0.37176 v 0.70554 h -0.354671 c -0.5599374,0 -1.099612,0.22298 -1.4908872,0.59092 -0.3912762,0.36793 -0.6353918,0.90974 -0.5294737,1.49152 l 0.6802092,3.7367 c 0.093402,0.51302 0.30292,0.99447 0.6415754,1.3598 0.3386555,0.36531 0.8188471,0.60546 1.3787851,0.60546 h 3.061575 c 0.559939,0 1.04013,-0.24015 1.378786,-0.60546 0.338655,-0.36533 0.547542,-0.84678 0.640942,-1.3598 l 0.682742,-3.7367 c 0.105915,-0.58178 -0.140098,-1.12359 -0.531374,-1.49152 -0.391276,-0.36794 -0.929048,-0.59092 -1.488987,-0.59092 H 13.5616 v -0.70807 c 0.22595,0 0.340104,-0.14988 0.340104,-0.32555 v -4.14647 c 0,-0.51312 -0.422958,-0.93544 -0.93608,-0.93544 z m 0,0.64855 h 2.518168 c 0.165512,0 0.287537,0.12299 0.287537,0.28753 v 3.82286 h -3.095143 v -3.82286 c 0,-0.16454 0.123921,-0.28753 0.289438,-0.28753 z m 1.867092,0.608 c -0.178093,0.004 -0.320041,0.14995 -0.317938,0.32807 v 1.29771 c 0.0094,0.42288 0.639156,0.42288 0.648543,0 v -1.29771 c 0.0022,-0.18307 -0.147554,-0.33164 -0.330605,-0.32807 z m -10.094204,2.2243 c -0.2707333,0.32488 -0.277404,0.6916 -0.277404,0.6916 v 1.05833 c -0.587881,0.41024 -0.97217989,1.09173 -0.97217989,1.86201 v 6.42463 c 0,0.23106 0.10375739,0.38382 0.37873659,0.38382 h 5.1345034 c 0.1782109,-6.2e-4 0.3223733,-0.14543 0.3230043,-0.32365 v -6.48416 c 0,-0.76952 -0.3849603,-1.44931 -0.9721798,-1.85949 v -1.06149 c 0,0 -0.00672,-0.36672 -0.2774036,-0.6916 C 5.2860667,284.7387 4.7641089,284.46 3.8885779,284.46 c -0.8755309,0 -1.3981229,0.2787 -1.6688549,0.60358 z m 2.8392719,0.4142 c 0.1346056,0.16152 0.1266684,0.2774 0.1266684,0.2774 v 2.59481 c 0,0.72419 -0.5728907,1.29708 -1.2970844,1.29708 -0.1552269,0 -0.3017102,-0.0306 -0.4389057,-0.0792 0.014907,-0.25503 0.059147,-0.42939 0.1216019,-0.5719 0.1507108,0.0195 0.2968942,0.007 0.4249725,-0.0216 0.2157674,-0.0478 0.3710157,-0.10356 0.5218734,-0.24194 0.232539,-0.20776 0.066192,-0.59195 -0.2444699,-0.56494 v 6.5e-4 c -0.072763,0.007 -0.1410041,0.0381 -0.1938026,0.0886 0.01276,-0.0122 -0.014582,0.002 -0.038634,0.0146 0.1647634,-0.27715 0.3116044,-0.64692 0.3116044,-1.19765 0.00321,-0.19602 -0.166902,-0.35004 -0.3616384,-0.32744 -0.1658212,0.0189 -0.2902233,0.16056 -0.287537,0.32744 0,0.11729 -0.00641,0.21478 -0.016467,0.30399 -0.087322,-0.0507 -0.1099282,-0.0787 -0.1146345,-0.0931 -0.043533,-0.13936 -0.1751829,-0.23242 -0.3211046,-0.22737 -0.2167357,0.009 -0.3643416,0.22342 -0.294504,0.42877 0.080092,0.24407 0.2729036,0.37868 0.4192724,0.46171 0.03841,0.0218 0.049241,0.0279 0.083601,0.0462 -0.04454,0.0636 -0.093227,0.12676 -0.146302,0.19823 -0.1622468,0.21848 -0.3520217,0.50803 -0.4509395,0.95001 -0.1682676,-0.2187 -0.2717038,-0.49077 -0.2717038,-0.7923 v -2.59481 c 0,0 -0.00792,-0.11594 0.1266683,-0.2774 0.1346056,-0.16154 0.4252254,-0.36924 1.1710486,-0.36925 0.7458229,0 1.0358094,0.2077 1.170416,0.36923 z m 5.4385081,1.51306 h 2.414932 v 0.70807 h -2.414932 z m -4.6632976,0.71061 c 0.2027522,0.2702 0.3236378,0.60624 0.3236378,0.97471 v 6.16115 H 1.6193146 v -6.16115 c 0,-0.36722 0.1209965,-0.70214 0.3230044,-0.97218 v 0.64601 c 0,0.72077 0.3958673,1.35027 0.9804137,1.68659 0.027404,0.021 0.057977,0.0374 0.090568,0.0488 0.2635383,0.13359 0.5604208,0.2109 0.8752783,0.2109 1.0722676,0 1.9456266,-0.87398 1.9456266,-1.94625 z m 3.6600836,0.64601 h 4.423893 c 0.382658,0 0.777803,0.16413 1.043748,0.4142 0.265945,0.25008 0.400261,0.55818 0.337571,0.90251 l -0.680209,3.73926 c -0.07522,0.41309 -0.244546,0.78091 -0.478807,1.03361 -0.234261,0.25271 -0.521756,0.39964 -0.904412,0.39964 h -3.061575 c -0.3826553,0 -0.6682516,-0.14693 -0.9025122,-0.39964 -0.2342608,-0.2527 -0.4061316,-0.62052 -0.4813398,-1.03361 l -0.6795759,-3.73926 c -0.062689,-0.34433 0.071629,-0.65243 0.337571,-0.90251 0.2659448,-0.25007 0.6629911,-0.4142 1.0456479,-0.4142 z m 0.804344,0.64854 c -0.3885673,0 -0.7573909,0.15418 -1.0291806,0.40977 -0.2717909,0.25557 -0.4489365,0.64174 -0.373672,1.05515 l 0.4332062,2.37947 c 0.06275,0.34465 0.2037751,0.67107 0.438272,0.92405 0.2344964,0.25295 0.5734774,0.4237 0.9620464,0.4237 h 1.951326 c 0.388569,0 0.727548,-0.17075 0.962047,-0.4237 0.2345,-0.25298 0.375533,-0.5794 0.438273,-0.92405 l 0.433206,-2.37947 c 0.07526,-0.41341 -0.101884,-0.79958 -0.373672,-1.05515 -0.27179,-0.25559 -0.638077,-0.40977 -1.026647,-0.40977 z m 0,0.64917 h 2.815205 c 0.21129,0 0.437483,0.0941 0.583941,0.23181 0.146458,0.13772 0.211271,0.29081 0.179236,0.46677 l -0.433207,2.37946 c -0.04455,0.24471 -0.144766,0.45818 -0.274869,0.59852 -0.130102,0.14034 -0.277019,0.21786 -0.488308,0.21786 h -1.951326 c -0.211288,0 -0.358205,-0.0775 -0.488306,-0.21786 -0.130101,-0.14034 -0.230315,-0.35379 -0.274871,-0.59852 l -0.4332055,-2.37946 c -0.032038,-0.17596 0.032771,-0.32905 0.1792361,-0.46677 0.146458,-0.13772 0.3751864,-0.23181 0.5864744,-0.23181 z m -7.5760366,1.01209 c -0.3265396,0.0122 -0.4323614,0.44478 -0.148202,0.6061 0.3557281,0.21344 0.8128589,0.32998 1.3141845,0.32998 0.5013248,0 0.9578235,-0.11656 1.3135515,-0.32998 0.3719827,-0.22166 0.039477,-0.77964 -0.3325046,-0.55798 -0.230394,0.13824 -0.5841413,0.23941 -0.9810469,0.23941 -0.3969064,0 -0.7512871,-0.10111 -0.9816801,-0.23941 -0.055231,-0.0342 -0.1194352,-0.0509 -0.1843024,-0.0482 z"
       id="rect1249"
       inkscape:connector-curvature="0"
       sodipodi:nodetypes="cscccsccccsscccsscccsccsssccsscccccccccsccccscccccccsscccccccccccccccccccsccccccccccsccscsccsscssccccssscccsscsccssccccssssccccssccccsccsccscc" />
  </g>
</svg>
