<?xml version="1.0" ?><svg viewBox="0 0 32 32" xmlns="http://www.w3.org/2000/svg"><title/><g data-name="Women Clothing" id="Women_Clothing"><path d="M26.5,16V10a.5.5,0,0,0-.5-.5A1.5,1.5,0,0,1,24.5,8V3.22A1.72,1.72,0,0,0,22.78,1.5H20.62a.57.57,0,0,0-.18,0,13.78,13.78,0,0,1-4.4.58,13.78,13.78,0,0,1-4.4-.58l-.14,0H9.22A1.72,1.72,0,0,0,7.5,3.22V8A1.52,1.52,0,0,1,6,9.5a.5.5,0,0,0-.5.5v5.93l-2,14a.53.53,0,0,0,.12.4A.52.52,0,0,0,4,30.5H28a.52.52,0,0,0,.38-.17.53.53,0,0,0,.12-.4ZM19.58,2.8,16,9,12.41,2.78l.1,0,.69.12h0A20.33,20.33,0,0,0,16,3.11a19.47,19.47,0,0,0,3.44-.29Zm-15,26.7L6.5,16V10.45A2.52,2.52,0,0,0,8.5,8V3.22a.72.72,0,0,1,.72-.72h1.87l4.48,7.75a.49.49,0,0,0,.86,0L20.91,2.5h1.87a.72.72,0,0,1,.72.72V8a2.5,2.5,0,0,0,2,2.45v5.62L27.42,29.5Z"/></g></svg>