<?xml version="1.0" ?><svg viewBox="0 0 32 32" xmlns="http://www.w3.org/2000/svg"><title/><g data-name="Women Shoes" id="Women_Shoes"><path d="M29.18,16.81a4.4,4.4,0,0,0-2.93-1.29h-.1L10.33,5.58a.53.53,0,0,0-.27-.08H2a.5.5,0,0,0-.5.5V26a.5.5,0,0,0,.5.5h8.44a.5.5,0,0,0,.5-.5V17.12l.94.84a10.35,10.35,0,0,1,2.67,3.62A10.69,10.69,0,0,1,15.5,26a.5.5,0,0,0,.5.5H26.41a4.21,4.21,0,0,0,1.23-.19A4.08,4.08,0,0,0,30,24.42a5.77,5.77,0,0,0,.27-.56,4.22,4.22,0,0,0,.26-1.45V20A4.55,4.55,0,0,0,29.18,16.81Zm-4.35-1c-3,.58-6.71-.52-9.73-3a13.86,13.86,0,0,1-4.3-5.82ZM9.94,25.5H2.5V24.18H9.94Zm2.6-8.29-1.77-1.58a.49.49,0,0,0-.53-.09.51.51,0,0,0-.3.46v7.18H2.5V6.5H9.58a14.31,14.31,0,0,0,4.89,7.15A14.24,14.24,0,0,0,23.21,17a9.23,9.23,0,0,0,3-.48A3.47,3.47,0,0,1,29.5,20v2.41a2.81,2.81,0,0,1-.11.77H16.14a12.47,12.47,0,0,0-.67-2A11.56,11.56,0,0,0,12.54,17.21Zm3.95,8.29a11.5,11.5,0,0,0-.12-1.18.61.61,0,0,0,0-.14H28.93l0,0a2.46,2.46,0,0,1-.43.48.27.27,0,0,1-.08.07,2.34,2.34,0,0,1-.49.33l-.08,0a2.64,2.64,0,0,1-.61.23l-.13,0a3,3,0,0,1-.67.08Z"/></g></svg>